  <svg version="1.0" xmlns="http://www.w3.org/2000/svg"  width="1680.000000pt" height="1641.000000pt" viewBox="0 0 1680.000000 1641.000000"  preserveAspectRatio="xMidYMid meet"> <g transform="translate(0.000000,1641.000000) scale(0.100000,-0.100000)" fill="#00b899" stroke="none"> <path d="M13009 16401 c20 -13 -19 -19 -204 -31 -168 -11 -317 -30 -385 -49 -153 -42 -229 -66 -277 -87 -17 -8 -36 -14 -42 -14 -23 0 -267 -113 -326 -150 -16 -11 -41 -24 -54 -30 -13 -6 -38 -21 -55 -33 -33 -24 -63 -42 -86 -53 -27 -13 -257 -192 -355 -277 -71 -61 -442 -431 -534 -532 -35 -38 -111 -119 -168 -178 l-104 -108 -32 27 c-18 15 -162 154 -322 309 -268 262 -454 431 -565 515 -25 18 -49 39 -55 45 -24 27 -282 203 -335 228 -8 4 -42 23 -75 43 -72 42 -193 100 -310 149 -16 7 -61 23 -100 35 -38 12 -79 25 -90 30 -11 4 -63 17 -115 29 -52 12 -111 26 -131 32 -20 5 -48 9 -62 9 -14 0 -50 6 -80 14 -30 8 -155 20 -278 26 -251 14 -565 2 -699 -26 -41 -8 -109 -22 -150 -30 -93 -19 -163 -38 -260 -71 -41 -14 -86 -28 -100 -30 -14 -3 -52 -18 -86 -34 -33 -16 -64 -29 -68 -29 -4 0 -48 -20 -98 -45 -50 -25 -94 -45 -99 -45 -4 0 -28 -13 -52 -30 -25 -16 -49 -30 -54 -30 -6 0 -28 -12 -50 -27 -21 -16 -46 -32 -55 -38 -52 -32 -138 -93 -169 -119 -20 -17 -58 -49 -85 -71 -172 -141 -429 -444 -485 -569 -5 -12 -18 -34 -29 -51 -10 -16 -30 -52 -45 -80 -14 -27 -29 -57 -34 -65 -21 -36 -71 -151 -71 -163 0 -7 -4 -17 -9 -22 -4 -6 -18 -41 -31 -80 -12 -38 -28 -86 -35 -105 -8 -19 -21 -69 -30 -110 -10 -41 -23 -93 -30 -115 -7 -22 -16 -67 -19 -100 -3 -33 -10 -94 -15 -135 -16 -118 -13 -538 4 -665 8 -60 15 -127 15 -148 0 -21 5 -47 11 -59 6 -11 15 -45 20 -77 14 -89 36 -191 54 -251 10 -30 23 -77 30 -105 13 -50 24 -83 53 -160 41 -112 113 -297 123 -315 36 -67 129 -271 129 -284 0 -9 4 -16 9 -16 5 0 20 -21 33 -47 12 -27 34 -66 48 -88 22 -35 57 -99 90 -160 6 -11 18 -32 28 -46 17 -26 92 -145 115 -184 7 -11 30 -44 53 -75 23 -30 43 -60 45 -66 4 -11 29 -45 77 -105 l24 -29 808 0 809 0 23 32 c13 18 28 40 33 49 6 9 29 48 53 85 24 38 48 78 55 89 7 11 28 45 47 75 20 30 63 99 95 153 33 54 67 109 75 122 54 86 133 213 143 230 7 11 23 36 37 55 14 19 34 52 44 73 21 41 32 45 52 20 16 -21 122 -173 144 -208 8 -12 39 -56 67 -96 29 -41 59 -82 65 -93 7 -10 27 -37 43 -60 17 -23 35 -49 40 -58 6 -10 48 -72 94 -140 47 -68 120 -175 163 -238 43 -63 108 -155 143 -205 35 -49 70 -100 77 -112 7 -12 40 -61 73 -108 33 -47 65 -94 70 -103 6 -9 16 -21 22 -25 7 -4 13 -14 13 -22 0 -13 38 -42 44 -33 1 2 52 104 113 228 60 124 120 245 132 270 12 25 26 52 31 60 10 17 315 637 409 832 34 70 66 130 71 133 6 4 10 12 10 20 0 11 91 203 140 295 4 8 17 35 29 60 12 25 26 52 30 60 5 8 27 54 50 103 32 65 47 87 61 87 11 0 20 -6 20 -12 0 -13 79 -170 159 -318 22 -41 66 -124 97 -185 31 -60 77 -150 103 -200 26 -49 71 -137 100 -195 30 -58 58 -112 62 -120 20 -34 186 -352 275 -525 31 -60 82 -159 114 -220 32 -60 86 -164 120 -230 71 -139 108 -207 119 -218 4 -4 57 46 118 110 61 65 176 186 256 268 l145 150 1317 3 c1159 2 1321 0 1348 -13 38 -19 44 -19 51 3 3 9 31 43 61 76 30 32 55 61 55 63 0 3 26 35 58 72 32 36 87 103 123 149 67 87 70 91 165 222 32 44 62 80 66 80 4 0 8 6 8 13 0 7 13 28 28 47 24 30 79 113 117 178 14 23 57 93 73 117 6 11 17 29 22 40 6 11 26 47 45 80 19 33 47 85 61 115 64 136 74 157 74 164 0 5 6 22 14 39 37 86 61 156 90 262 9 33 22 74 27 90 12 32 12 35 34 165 8 47 21 126 29 176 19 105 22 402 6 485 -6 30 -15 92 -20 139 -12 103 -33 223 -48 270 -6 19 -18 62 -28 95 -21 74 -49 163 -62 195 -5 14 -18 45 -27 70 -17 44 -70 160 -86 190 -4 8 -23 44 -42 80 -19 36 -47 86 -63 110 -15 25 -35 57 -44 72 -26 45 -194 275 -210 288 -4 3 -52 56 -109 118 -56 62 -139 144 -184 183 -45 39 -93 80 -107 93 -47 42 -189 146 -199 146 -5 0 -14 6 -18 13 -12 19 -192 126 -313 186 -58 28 -109 56 -114 61 -6 6 -16 10 -23 10 -7 0 -41 13 -75 28 -87 40 -270 102 -403 137 -179 47 -279 63 -475 75 -171 11 -204 16 -195 30 4 6 -15 10 -47 10 -36 0 -48 -3 -39 -9z"/> <path d="M10369 11438 c-8 -13 -31 -57 -51 -98 -88 -182 -280 -576 -288 -590 -4 -8 -31 -62 -60 -120 -73 -150 -90 -183 -99 -200 -13 -22 -178 -362 -191 -391 -5 -13 -14 -31 -19 -39 -15 -24 -239 -482 -250 -512 -17 -44 -38 -34 -88 42 -16 25 -64 96 -106 158 -42 61 -110 160 -150 220 -40 59 -94 136 -119 172 -25 36 -65 94 -90 130 -24 36 -66 97 -93 135 -26 39 -81 117 -120 175 -39 58 -97 141 -128 185 -31 44 -100 144 -153 223 -54 79 -101 145 -104 147 -9 6 -80 -91 -80 -109 0 -8 -4 -17 -9 -20 -5 -3 -28 -38 -52 -77 -24 -39 -52 -82 -61 -97 -9 -15 -26 -45 -38 -66 -12 -21 -33 -54 -47 -72 l-25 -34 -719 0 c-466 0 -719 -3 -719 -10 0 -10 79 -106 154 -189 54 -59 205 -221 231 -246 11 -12 67 -72 125 -134 89 -95 611 -619 730 -731 126 -119 219 -208 326 -309 66 -64 172 -163 235 -221 141 -130 270 -251 328 -307 24 -24 78 -74 120 -111 42 -37 114 -103 161 -147 47 -44 113 -104 145 -134 33 -30 92 -84 130 -120 39 -36 119 -111 179 -166 60 -55 116 -107 124 -115 9 -8 31 -27 50 -42 18 -15 86 -76 150 -135 219 -204 457 -428 537 -504 147 -142 179 -168 194 -159 8 4 168 160 355 347 188 186 386 381 441 433 55 52 217 207 360 346 143 139 294 285 335 324 41 40 156 152 255 249 99 97 323 316 498 486 270 263 934 925 1385 1380 67 69 122 129 122 135 0 7 -293 10 -927 10 l-926 0 -55 -57 c-49 -52 -338 -349 -739 -760 -77 -79 -144 -143 -151 -143 -6 0 -20 21 -31 48 -12 26 -25 54 -30 62 -10 16 -25 44 -161 305 -46 88 -112 214 -146 280 -35 66 -72 140 -84 165 -12 25 -26 52 -31 60 -5 8 -22 40 -37 70 -16 30 -55 105 -87 165 -67 126 -155 296 -235 452 -30 60 -67 129 -82 154 -16 25 -28 52 -28 60 -1 8 -11 27 -24 42 l-23 28 -14 -23z"/> <path d="M0 4520 l0 -3200 1295 0 1295 0 2 3181 c2 1749 0 3189 -4 3200 -7 19 -30 19 -1298 19 l-1290 0 0 -3200z"/> <path d="M3326 7194 c-3 -8 -6 -1210 -6 -2669 l0 -2654 30 -21 c17 -12 90 -52 163 -89 473 -242 552 -284 555 -292 2 -5 9 -9 15 -9 12 0 38 -13 217 -107 69 -36 199 -103 290 -150 91 -46 192 -100 225 -118 33 -19 67 -37 75 -40 8 -3 29 -13 45 -22 17 -9 57 -29 90 -45 33 -16 67 -33 75 -38 8 -5 74 -39 145 -76 255 -133 324 -169 372 -196 120 -66 247 -133 348 -184 61 -30 117 -59 125 -63 8 -5 35 -17 60 -26 25 -10 59 -23 75 -30 69 -29 82 -35 135 -55 30 -12 66 -26 80 -32 14 -5 57 -20 96 -33 40 -13 80 -28 90 -33 11 -5 39 -15 64 -21 25 -6 68 -18 95 -27 28 -8 68 -19 90 -24 22 -5 78 -18 125 -30 47 -11 103 -24 125 -27 22 -3 49 -10 60 -16 24 -13 203 -32 490 -52 200 -15 240 -15 440 0 262 18 468 39 484 49 7 5 36 12 64 16 67 11 251 55 292 70 45 16 162 50 175 50 21 0 322 120 458 181 34 16 65 29 70 29 4 0 41 18 82 40 41 22 81 42 88 45 6 3 18 7 25 10 6 3 26 14 42 24 17 11 50 30 75 42 25 13 77 42 116 66 39 24 75 43 79 43 5 0 16 6 24 13 9 8 41 24 71 37 30 12 107 47 170 78 310 148 904 438 930 453 8 5 38 20 65 34 28 14 58 30 68 35 24 14 38 21 172 90 269 139 393 204 447 233 31 18 80 45 110 61 29 16 64 36 78 44 98 55 152 84 195 107 28 14 77 41 110 60 33 19 67 38 75 42 8 4 59 33 113 65 54 32 100 58 102 58 3 0 38 20 78 45 41 25 78 45 82 45 5 0 16 6 24 14 15 12 56 36 156 90 22 12 58 34 80 48 22 14 59 37 82 49 36 20 183 108 233 139 15 10 166 100 226 136 122 73 221 134 294 183 95 62 118 77 140 87 8 4 42 26 75 49 33 23 65 44 70 46 11 4 163 103 233 150 23 16 44 29 47 29 2 0 33 20 69 45 37 25 69 45 73 45 4 0 16 9 27 19 12 11 35 27 52 38 30 17 358 234 379 250 6 5 37 26 70 48 33 22 86 59 117 82 31 24 59 43 63 43 4 0 33 20 65 45 32 25 62 45 65 45 4 0 24 14 45 30 21 17 41 30 44 30 3 0 14 8 25 18 16 14 219 157 268 187 9 6 23 16 32 23 9 7 70 53 136 101 116 84 234 199 280 271 12 19 30 41 39 49 9 7 16 17 16 22 0 4 13 27 28 51 70 106 134 276 152 400 8 62 17 81 31 73 5 -4 9 50 9 134 0 128 -2 143 -20 161 -12 12 -20 33 -20 55 0 89 -75 277 -166 418 -60 91 -237 268 -329 328 -78 51 -172 97 -295 147 -47 19 -149 39 -299 59 -106 14 -141 15 -245 4 -153 -15 -292 -39 -333 -57 -17 -8 -36 -14 -43 -14 -6 0 -96 -41 -198 -91 -332 -163 -917 -451 -932 -460 -8 -4 -35 -18 -60 -30 -25 -12 -52 -25 -60 -29 -8 -5 -76 -38 -150 -75 -74 -36 -142 -71 -150 -76 -8 -5 -25 -13 -37 -19 -28 -12 -373 -179 -393 -190 -8 -5 -103 -52 -210 -105 -107 -53 -202 -101 -210 -106 -8 -4 -35 -18 -60 -30 -25 -12 -54 -26 -64 -31 -11 -6 -51 -26 -90 -45 -39 -18 -78 -38 -86 -43 -8 -5 -39 -20 -67 -34 -29 -14 -53 -30 -53 -36 0 -6 -13 -38 -30 -72 -16 -33 -30 -64 -30 -69 0 -5 -14 -39 -31 -76 -33 -74 -53 -119 -76 -173 -8 -19 -22 -47 -29 -62 -8 -14 -14 -31 -14 -37 0 -19 -72 -165 -104 -211 -152 -220 -395 -463 -553 -555 -18 -11 -33 -23 -33 -26 0 -4 -9 -11 -21 -14 -12 -4 -37 -18 -58 -32 -20 -13 -58 -36 -86 -49 -27 -14 -70 -36 -94 -50 -24 -13 -49 -24 -54 -24 -6 0 -35 -12 -66 -27 -31 -14 -69 -30 -86 -34 -16 -5 -77 -24 -135 -44 -58 -20 -123 -40 -145 -45 -166 -38 -230 -51 -300 -59 -44 -6 -109 -15 -145 -20 -158 -25 -266 -32 -585 -41 -187 -5 -360 -14 -385 -21 -28 -7 -154 -12 -325 -12 l-280 -2 -75 37 c-128 62 -192 131 -231 247 -32 95 -19 210 33 306 21 38 103 118 143 138 17 9 46 24 65 34 31 16 60 18 240 17 113 -1 249 -6 302 -13 56 -6 261 -11 485 -11 394 0 577 11 713 45 30 8 91 21 135 30 44 9 91 21 105 27 14 6 39 14 55 18 129 34 288 104 438 196 54 32 107 64 119 71 11 6 23 15 27 20 3 5 31 28 61 51 87 68 159 141 217 219 29 40 53 75 53 79 0 4 6 15 13 23 7 9 27 52 44 96 125 322 -45 700 -397 877 -25 12 -52 27 -60 33 -8 7 -44 20 -80 29 -36 10 -76 23 -90 28 -79 33 -200 37 -1150 38 -804 0 -949 2 -970 15 -14 8 -34 18 -45 24 -11 5 -36 20 -55 33 -19 13 -42 27 -50 31 -8 4 -27 15 -42 25 -120 78 -249 156 -293 178 -16 8 -43 23 -60 34 -16 10 -41 25 -55 33 -14 7 -82 47 -152 88 -175 102 -218 125 -568 305 -116 60 -293 144 -303 144 -3 0 -45 18 -94 41 -134 62 -161 74 -253 108 -126 48 -148 56 -230 89 -41 16 -102 37 -135 47 -33 9 -71 22 -85 27 -14 6 -41 14 -60 19 -19 4 -66 17 -105 29 -104 32 -224 61 -375 92 -39 8 -413 13 -1261 15 -1096 3 -1207 2 -1213 -13z"/> </g> </svg> 