<?xml version="1.0" standalone="no"?> <!DOCTYPE svg PUBLIC "-//W3C//DTD SVG 20010904//EN" "http://www.w3.org/TR/2001/REC-SVG-20010904/DTD/svg10.dtd"> <svg version="1.0" xmlns="http://www.w3.org/2000/svg" width="1461.000000pt" height="465.000000pt" viewBox="0 0 1461.000000 465.000000" preserveAspectRatio="xMidYMid meet"> <g transform="translate(0.000000,465.000000) scale(0.100000,-0.100000)" fill="#00b899" stroke="none"> <path d="M9105 3800 c-3 -5 -15 -10 -25 -10 -10 0 -20 -4 -22 -8 -3 -8 -49 -35 -183 -107 -22 -12 -82 -45 -133 -74 -50 -28 -97 -51 -102 -51 -6 0 -10 -3 -10 -8 0 -4 -22 -18 -50 -31 -48 -23 -100 -23 -100 -1 0 6 -8 10 -19 10 -10 0 -24 7 -31 15 -7 8 -19 15 -27 15 -7 0 -16 7 -19 15 -4 8 -12 15 -18 15 -16 0 -125 56 -146 75 -9 8 -26 15 -38 15 -24 0 -92 -30 -92 -41 0 -4 -12 -12 -27 -18 -16 -6 -41 -20 -58 -31 -16 -11 -37 -23 -45 -27 -8 -3 -19 -12 -23 -20 -4 -7 -17 -13 -27 -13 -11 0 -20 -4 -20 -9 0 -5 -13 -14 -30 -20 -34 -11 -41 -41 -10 -41 11 0 20 -4 20 -9 0 -6 11 -16 25 -23 13 -7 49 -26 80 -42 30 -16 55 -33 55 -37 0 -4 12 -10 27 -14 15 -3 30 -10 33 -14 10 -13 60 -41 74 -41 8 0 19 -6 23 -12 9 -15 37 -33 73 -49 14 -6 39 -21 57 -35 17 -13 38 -24 46 -24 8 0 33 -13 55 -30 23 -16 48 -30 56 -30 8 0 16 -7 20 -15 3 -8 12 -15 19 -15 8 0 20 -7 27 -15 18 -22 41 -19 71 9 31 28 229 126 256 126 11 0 24 5 30 11 6 6 37 15 69 20 175 29 195 31 262 20 121 -18 175 -30 186 -41 5 -5 19 -10 29 -10 17 0 48 -14 97 -41 8 -5 25 -13 38 -19 12 -5 22 -14 22 -20 0 -5 6 -10 13 -10 8 0 23 -8 35 -17 11 -10 36 -29 54 -43 67 -49 189 -181 237 -255 14 -22 31 -44 38 -48 7 -4 13 -18 13 -30 0 -12 7 -31 15 -41 8 -11 15 -34 15 -51 0 -17 6 -37 12 -43 41 -41 40 -443 0 -518 -6 -10 -21 -46 -34 -79 -12 -33 -26 -62 -30 -65 -4 -4 -10 -19 -13 -35 -5 -28 -2 -32 45 -54 27 -13 50 -28 50 -33 0 -4 9 -8 19 -8 11 0 23 -5 26 -10 4 -6 21 -17 38 -25 18 -8 55 -28 82 -44 28 -17 59 -35 70 -41 11 -5 28 -14 38 -20 9 -5 25 -15 35 -20 9 -6 27 -14 39 -19 11 -6 24 -15 28 -20 3 -6 10 -11 15 -11 11 0 11 474 -1 1059 l-8 445 -27 23 c-15 13 -35 23 -46 23 -10 0 -18 4 -18 9 0 5 -8 11 -17 15 -10 3 -45 22 -78 41 -33 19 -69 40 -80 45 -11 6 -33 19 -50 30 -16 11 -39 24 -50 30 -11 5 -27 14 -35 19 -8 5 -22 12 -30 15 -8 4 -28 15 -45 26 -16 11 -39 24 -50 30 -11 6 -33 19 -50 30 -16 11 -36 22 -42 25 -7 3 -19 7 -25 10 -7 3 -26 14 -43 24 -16 11 -46 28 -65 39 -19 10 -62 34 -95 52 -33 18 -71 41 -84 51 -13 11 -27 19 -31 19 -7 0 -112 59 -160 90 -8 6 -26 15 -40 21 -14 6 -39 21 -57 35 -17 13 -38 24 -47 24 -8 0 -18 5 -21 10 -3 6 -12 10 -20 10 -8 0 -17 -4 -20 -10z"/> <path d="M1050 3676 c0 -13 -7 -29 -15 -36 -8 -7 -15 -27 -15 -45 0 -18 -7 -38 -15 -45 -8 -7 -15 -25 -15 -39 0 -15 -7 -36 -15 -47 -8 -10 -15 -31 -15 -45 0 -14 -7 -34 -15 -45 -8 -10 -15 -28 -15 -40 0 -11 -7 -29 -15 -40 -8 -10 -15 -27 -15 -36 0 -10 -6 -32 -14 -50 -8 -18 -31 -87 -52 -153 -20 -66 -41 -124 -46 -129 -4 -6 -8 -16 -8 -24 0 -8 -6 -28 -13 -45 -18 -43 -37 -95 -47 -132 -13 -48 -31 -98 -46 -128 -8 -16 -14 -35 -14 -44 0 -8 -6 -29 -13 -46 -20 -48 -38 -98 -47 -136 -5 -18 -13 -38 -19 -44 -6 -6 -11 -20 -11 -30 0 -10 -6 -33 -13 -50 -18 -43 -37 -95 -47 -132 -13 -48 -31 -98 -46 -128 -8 -16 -14 -35 -14 -44 0 -8 -6 -29 -13 -46 -20 -48 -38 -98 -47 -136 -5 -18 -13 -38 -19 -44 -6 -6 -11 -25 -11 -43 0 -17 -7 -37 -15 -44 -8 -7 -15 -22 -15 -34 0 -12 -7 -31 -15 -42 -8 -10 -15 -28 -15 -39 0 -11 -7 -33 -15 -49 -8 -15 -15 -38 -15 -50 0 -12 -5 -27 -11 -33 -6 -6 -14 -26 -19 -44 -9 -34 -33 -105 -49 -144 -13 -32 -32 -88 -41 -120 -11 -40 -31 -96 -41 -117 -5 -10 -9 -20 -9 -23 0 -3 136 -4 301 -3 l302 3 14 50 c8 28 21 63 29 78 8 16 14 36 14 46 0 9 6 25 14 36 7 11 16 36 18 55 6 39 23 90 44 133 8 16 14 40 14 53 0 14 6 35 14 47 8 12 17 38 20 58 4 20 16 47 29 60 l22 24 499 -5 c430 -4 500 -7 506 -20 33 -66 70 -175 70 -206 0 -12 6 -27 14 -33 8 -6 16 -26 19 -44 9 -55 50 -184 73 -229 8 -14 14 -39 14 -55 0 -16 5 -34 12 -41 9 -9 92 -12 311 -12 l298 0 -7 23 c-3 12 -13 34 -20 49 -8 15 -14 38 -14 51 0 12 -5 28 -11 34 -6 6 -14 26 -19 44 -9 38 -26 89 -45 134 -20 49 -36 98 -45 134 -5 18 -13 38 -19 44 -6 6 -11 24 -11 40 0 16 -7 35 -15 43 -8 9 -15 27 -15 42 0 15 -7 36 -15 46 -8 11 -15 31 -15 45 0 14 -7 35 -15 45 -8 11 -15 27 -15 37 0 9 -7 30 -15 45 -8 16 -15 37 -15 46 0 9 -6 29 -14 45 -16 33 -35 85 -46 132 -5 18 -13 38 -19 44 -6 6 -11 22 -11 36 0 15 -7 35 -15 45 -8 11 -15 29 -15 40 0 12 -7 30 -15 40 -8 11 -15 32 -15 46 0 14 -5 31 -11 37 -6 6 -15 29 -19 50 -9 45 -28 98 -46 135 -8 14 -14 35 -14 45 0 11 -7 28 -15 39 -8 10 -15 29 -15 41 0 12 -6 34 -14 50 -21 42 -38 94 -43 130 -3 18 -11 38 -19 44 -8 6 -14 26 -14 43 0 17 -7 40 -15 50 -8 11 -15 29 -15 40 0 12 -7 30 -15 40 -8 11 -15 29 -15 40 0 12 -7 30 -15 40 -8 11 -15 33 -15 49 0 15 -7 35 -15 43 -8 9 -15 27 -15 42 0 15 -7 36 -15 46 -8 11 -15 31 -15 45 0 14 -7 35 -15 45 -8 11 -15 30 -15 42 0 12 -6 35 -14 51 -13 26 -20 43 -56 143 -7 19 -15 51 -19 70 l-6 35 -378 3 -377 2 0 -24z m388 -594 c14 -10 61 -136 62 -167 0 -11 7 -29 15 -39 8 -11 15 -32 15 -47 0 -14 6 -32 14 -38 8 -6 16 -26 19 -44 2 -18 10 -48 17 -67 31 -86 39 -109 55 -165 10 -33 24 -74 32 -92 7 -17 13 -42 13 -55 0 -13 7 -33 15 -44 8 -10 15 -29 15 -40 0 -12 7 -35 15 -50 8 -16 15 -36 15 -45 0 -9 7 -30 15 -45 8 -16 15 -38 15 -49 0 -12 5 -26 11 -32 6 -6 9 -21 7 -34 l-3 -24 -353 -3 -352 -2 -11 23 c-9 19 -7 31 5 55 9 17 16 39 16 50 0 10 7 27 15 38 8 10 15 32 15 47 0 16 6 41 14 55 18 37 37 90 46 135 4 21 13 44 19 50 6 6 11 20 11 31 0 12 7 34 15 50 8 15 15 38 15 50 1 11 7 32 15 46 8 14 14 37 15 51 0 14 7 34 15 45 8 10 15 31 15 45 0 14 7 34 15 45 8 10 15 30 15 44 0 14 7 38 15 54 8 15 15 38 15 51 0 12 7 28 15 35 8 7 15 24 15 39 0 15 5 32 12 39 14 14 19 14 36 4z"/> <path d="M4320 2315 l1 -1385 282 2 282 3 1 477 c1 263 4 485 8 493 4 13 38 15 224 15 247 0 227 6 274 -85 107 -208 163 -312 174 -326 8 -8 14 -23 14 -32 0 -9 4 -17 9 -17 5 0 14 -12 20 -27 6 -16 15 -35 20 -43 16 -27 52 -95 67 -125 8 -16 37 -70 64 -120 26 -49 63 -118 80 -152 l33 -63 308 0 c170 0 309 2 309 5 0 3 -11 22 -24 43 -12 20 -35 62 -50 92 -15 30 -36 69 -46 85 -11 17 -27 46 -36 65 -8 19 -20 44 -25 55 -5 11 -18 34 -29 50 -11 17 -31 54 -45 82 -15 29 -30 55 -36 58 -5 4 -9 14 -9 25 0 10 -7 20 -15 24 -8 3 -15 12 -15 20 0 8 -16 41 -36 73 -49 81 -50 83 -74 133 -11 25 -25 52 -31 60 -36 57 -99 184 -99 200 0 14 17 27 58 47 31 15 60 32 63 36 6 8 34 26 67 43 13 6 112 104 112 109 0 2 20 34 45 72 25 37 45 73 45 79 0 6 7 17 15 24 8 7 15 22 15 34 0 12 7 31 15 42 8 10 15 33 15 50 0 17 7 54 16 83 18 63 15 302 -5 396 -19 84 -67 206 -109 279 -37 62 -182 217 -214 229 -10 4 -18 11 -18 17 0 5 -8 10 -19 10 -10 0 -24 7 -31 15 -7 8 -18 15 -25 15 -7 0 -40 14 -73 30 -34 17 -68 30 -77 30 -10 0 -31 6 -48 14 -82 35 -190 41 -825 44 l-622 2 0 -1385z m1174 910 c15 -8 38 -15 50 -15 11 -1 39 -12 61 -25 22 -14 47 -28 55 -32 31 -15 88 -80 108 -123 51 -113 52 -117 52 -222 0 -150 -30 -230 -119 -316 -40 -39 -114 -82 -141 -82 -6 0 -21 -7 -33 -15 -19 -12 -78 -15 -320 -17 -208 -2 -300 1 -308 9 -8 8 -11 131 -10 424 1 227 4 416 7 421 3 4 132 8 287 8 231 0 287 -3 311 -15z"/> <path d="M12780 3676 c0 -14 -4 -27 -8 -30 -5 -3 -26 -58 -46 -123 -21 -65 -44 -130 -52 -145 -8 -14 -14 -34 -14 -43 0 -9 -6 -29 -14 -43 -7 -15 -24 -61 -36 -102 -13 -41 -27 -79 -31 -84 -5 -6 -9 -22 -9 -36 0 -14 -7 -35 -15 -46 -8 -10 -15 -29 -15 -42 0 -12 -9 -39 -20 -59 -11 -21 -20 -45 -20 -55 0 -9 -4 -20 -10 -23 -5 -3 -10 -18 -10 -32 0 -13 -6 -37 -14 -51 -20 -40 -38 -93 -43 -129 -3 -18 -11 -38 -19 -44 -8 -6 -14 -24 -14 -39 0 -15 -7 -33 -15 -40 -8 -7 -15 -25 -15 -39 0 -15 -7 -36 -15 -47 -8 -10 -15 -30 -15 -42 0 -13 -6 -36 -14 -50 -15 -30 -33 -81 -46 -127 -13 -48 -31 -98 -46 -128 -8 -16 -14 -36 -14 -45 0 -9 -7 -30 -15 -46 -8 -15 -15 -36 -15 -45 0 -9 -7 -29 -15 -45 -8 -15 -15 -36 -15 -45 0 -9 -7 -29 -15 -45 -8 -15 -15 -36 -15 -45 0 -10 -7 -26 -15 -37 -8 -10 -15 -31 -15 -45 0 -15 -6 -32 -14 -38 -8 -6 -16 -26 -19 -44 -4 -29 -23 -87 -46 -142 -13 -32 -32 -88 -41 -120 -13 -48 -31 -98 -46 -128 -8 -16 -14 -36 -14 -46 0 -9 -7 -26 -15 -37 -8 -10 -15 -31 -15 -45 0 -14 -7 -34 -15 -45 -8 -10 -15 -31 -15 -46 0 -15 -4 -30 -10 -33 -35 -21 12 -25 291 -23 l302 3 18 60 c10 33 23 68 29 77 5 10 10 26 10 35 0 10 7 31 15 47 8 15 15 38 15 50 0 12 7 31 15 42 8 10 15 31 15 45 0 14 7 34 15 45 8 10 15 31 15 45 0 14 7 34 15 45 8 10 15 32 15 47 0 15 10 45 21 65 l22 37 500 -3 c296 -2 505 -7 512 -12 7 -5 20 -36 30 -67 9 -32 24 -70 31 -85 8 -14 14 -37 14 -51 0 -14 6 -38 14 -54 18 -36 36 -88 46 -133 9 -37 25 -85 47 -137 7 -17 13 -39 13 -48 0 -9 5 -25 10 -36 10 -18 24 -19 311 -19 l299 0 -6 28 c-4 15 -13 36 -20 47 -8 11 -14 29 -14 40 0 12 -4 25 -9 31 -6 5 -14 27 -20 49 -12 50 -38 125 -51 147 -6 10 -10 28 -10 42 0 13 -7 29 -15 36 -8 7 -15 24 -15 39 0 14 -7 35 -15 45 -8 11 -15 30 -15 42 0 12 -7 35 -15 50 -8 16 -15 38 -15 50 0 11 -4 24 -9 30 -5 5 -14 25 -19 44 -13 44 -31 95 -49 137 -7 17 -13 38 -13 46 0 9 -6 28 -14 44 -15 30 -33 80 -46 128 -10 37 -29 89 -47 132 -7 17 -13 37 -13 45 0 8 -7 23 -15 34 -8 10 -15 29 -15 41 0 12 -6 37 -14 55 -22 54 -38 101 -43 130 -3 15 -11 33 -19 39 -8 6 -14 26 -14 43 0 17 -7 40 -15 50 -8 11 -15 28 -15 38 0 10 -4 26 -10 36 -16 27 -42 104 -47 139 -3 18 -11 38 -19 44 -8 6 -14 26 -14 43 0 17 -7 40 -15 50 -8 11 -15 29 -15 41 0 12 -7 30 -15 41 -8 10 -15 31 -15 45 0 15 -7 32 -15 39 -8 7 -15 24 -15 39 0 14 -7 35 -15 45 -8 11 -15 31 -15 45 -1 14 -7 37 -15 51 -8 14 -14 35 -15 46 0 12 -7 27 -15 34 -8 7 -15 25 -15 40 0 16 -6 41 -14 57 -28 55 -46 104 -46 121 0 10 -6 27 -14 38 -8 11 -16 36 -18 55 l-3 34 -377 3 -378 2 0 -24z m392 -598 c15 -13 58 -133 58 -166 0 -9 7 -26 15 -36 8 -11 15 -32 15 -47 0 -14 7 -32 15 -39 8 -7 15 -21 15 -32 0 -19 23 -98 41 -143 20 -48 41 -113 48 -145 4 -19 13 -45 19 -57 7 -12 12 -32 12 -45 0 -13 7 -32 15 -42 8 -11 15 -32 15 -46 0 -14 4 -30 9 -35 4 -6 18 -44 31 -85 12 -41 27 -85 32 -96 6 -12 8 -30 6 -40 -3 -18 -20 -19 -360 -22 l-356 -2 -6 25 c-4 14 0 40 7 58 22 50 38 99 48 142 6 22 14 44 20 50 5 5 9 18 9 30 0 11 7 33 15 49 8 15 15 36 15 45 0 9 7 29 15 45 8 15 15 36 15 45 0 9 7 29 15 45 8 15 15 38 15 50 0 12 7 31 15 42 8 10 15 33 15 49 0 17 7 39 15 49 8 11 15 32 15 46 0 14 7 35 15 46 8 10 15 30 15 44 0 14 7 38 15 54 8 15 15 38 15 51 0 12 7 28 15 35 8 7 15 24 15 39 0 25 15 51 30 51 3 0 13 -6 22 -12z"/> <path d="M7876 2458 c3 -354 6 -690 7 -747 3 -118 -9 -99 106 -166 28 -16 51 -33 51 -37 0 -5 8 -8 19 -8 10 0 24 -7 31 -15 7 -8 20 -15 30 -15 10 0 23 -7 30 -15 7 -8 17 -15 22 -15 11 0 72 -42 76 -52 2 -5 11 -8 19 -8 17 0 86 -39 91 -52 2 -4 12 -8 22 -8 9 0 23 -7 30 -15 7 -8 19 -15 27 -15 7 0 16 -7 19 -15 4 -8 12 -15 20 -15 14 0 65 -26 119 -61 17 -10 40 -23 53 -29 12 -5 22 -14 22 -20 0 -5 6 -10 14 -10 17 0 89 -40 94 -52 2 -4 11 -8 21 -8 9 0 22 -5 28 -11 12 -12 46 -33 80 -48 11 -5 24 -15 28 -20 3 -6 14 -11 24 -11 10 0 24 -7 31 -15 7 -8 19 -15 28 -15 8 0 20 -6 26 -14 20 -25 124 -76 154 -76 17 0 32 6 36 15 3 8 14 15 24 15 11 0 25 7 32 15 7 8 21 15 31 15 11 0 19 3 19 8 0 4 21 18 48 31 26 12 54 27 62 32 8 5 23 12 33 15 9 4 17 10 17 14 0 5 12 13 28 19 15 6 54 27 87 46 60 34 67 38 95 49 8 3 30 15 48 26 35 21 36 21 102 -19 48 -30 171 -99 205 -116 22 -10 47 -25 56 -32 14 -12 35 -2 153 69 158 96 163 99 194 117 23 12 23 13 6 32 -9 10 -22 19 -29 19 -7 0 -31 13 -53 30 -23 16 -47 30 -53 30 -6 0 -31 14 -56 30 -24 17 -48 30 -54 30 -5 0 -12 7 -15 15 -4 8 -14 15 -24 15 -10 0 -23 6 -29 14 -7 8 -23 17 -36 20 -14 4 -25 11 -25 16 0 6 -8 10 -19 10 -10 0 -24 7 -31 15 -7 8 -19 15 -27 15 -7 0 -16 6 -19 14 -3 8 -17 17 -32 21 -15 4 -41 17 -59 31 -17 13 -36 24 -41 24 -5 0 -28 14 -50 30 -53 38 -91 38 -144 0 -22 -16 -45 -30 -49 -30 -5 0 -31 -13 -57 -30 -27 -17 -56 -30 -64 -30 -9 0 -29 -7 -44 -15 -16 -8 -37 -15 -47 -15 -10 0 -32 -7 -49 -16 -46 -24 -356 -24 -412 -1 -21 10 -45 17 -53 17 -24 0 -198 88 -243 123 -58 45 -210 195 -241 237 -70 95 -99 141 -99 157 0 10 -7 27 -15 37 -8 11 -15 32 -15 46 0 15 -7 42 -17 60 -13 27 -16 67 -17 219 0 167 2 193 22 251 24 69 39 106 53 130 5 8 14 26 20 40 5 13 15 28 21 31 6 4 7 12 4 18 -4 6 -12 9 -17 6 -8 -6 -20 1 -60 38 -10 9 -23 17 -27 17 -7 0 -65 30 -185 98 -23 12 -48 29 -57 37 -9 8 -24 15 -32 15 -9 0 -21 6 -27 14 -7 8 -23 17 -36 20 -14 4 -25 11 -25 16 0 6 -9 10 -20 10 -19 0 -19 -9 -14 -642z"/> <path d="M9055 2863 c-45 -4 -101 -27 -196 -80 -33 -19 -122 -102 -133 -125 -3 -7 -18 -33 -32 -58 -50 -88 -58 -126 -58 -267 0 -101 4 -140 17 -165 8 -18 25 -54 37 -79 21 -48 89 -125 150 -171 111 -82 247 -117 387 -99 76 9 157 35 184 58 8 7 21 13 27 13 7 0 20 8 31 18 10 9 32 28 50 42 36 28 121 150 121 173 0 9 6 22 13 29 13 13 21 53 33 168 6 56 -12 164 -37 230 -16 40 -69 126 -97 155 -26 28 -71 65 -77 65 -6 0 -65 40 -75 50 -3 3 -36 16 -75 28 -68 22 -148 26 -270 15z"/> </g> </svg>