<?xml version="1.0" standalone="no"?> <!DOCTYPE svg PUBLIC "-//W3C//DTD SVG 20010904//EN" "http://www.w3.org/TR/2001/REC-SVG-20010904/DTD/svg10.dtd"> <svg version="1.0" xmlns="http://www.w3.org/2000/svg" width="600.000000pt" height="401.000000pt" viewBox="0 0 600.000000 401.000000" preserveAspectRatio="xMidYMid meet"> <g transform="translate(0.000000,401.000000) scale(0.050000,-0.050000)" fill="#00b899" stroke="none"> <path d="M60 5813 c0 -1464 7 -2263 21 -2367 126 -913 964 -1599 1949 -1593 1829 10 2499 2555 915 3478 -275 160 -609 242 -1070 263 l-275 12 0 -531 0 -532 325 -6 c518 -11 778 -214 874 -682 192 -930 -1164 -1392 -1583 -540 l-66 134 -10 2141 c-6 1177 -13 2142 -15 2145 -3 3 -38 42 -79 86 -147 163 -226 188 -631 195 l-355 7 0 -2210z"/> <path d="M1698 7816 c-284 -563 -126 -1178 377 -1461 l63 -36 53 91 c281 479 181 1053 -242 1396 -189 153 -179 153 -251 10z"/> <path d="M3181 6845 c-288 -54 -689 -401 -752 -650 -34 -136 549 -231 846 -138 273 85 771 575 672 662 -111 97 -542 168 -766 126z"/> <path d="M10666 5881 c-113 -69 -135 -125 -143 -365 l-7 -216 -153 0 c-227 0 -343 -90 -343 -264 0 -176 128 -276 353 -276 l144 0 7 -805 c7 -969 28 -1050 307 -1186 481 -236 1168 125 817 428 -56 48 -60 48 -273 12 -253 -44 -255 -36 -255 821 l0 730 201 0 c313 0 419 69 419 270 0 201 -106 270 -419 270 l-201 0 0 173 c0 379 -203 561 -454 408z"/> <path d="M5260 5372 c-1281 -293 -1388 -2240 -146 -2652 714 -237 1699 144 1452 562 -86 145 -215 149 -484 13 l-208 -105 -242 0 c-410 0 -792 282 -792 585 l0 45 851 0 c1072 0 1080 2 1078 327 -7 769 -774 1392 -1509 1225z m504 -560 c239 -98 395 -298 378 -487 -3 -37 -1302 -37 -1302 0 2 377 523 652 924 487z"/> <path d="M8167 5360 c-1125 -295 -1339 -2021 -316 -2555 678 -354 1908 -27 1682 447 -82 173 -257 189 -493 46 -475 -288 -1153 -37 -1253 463 l-12 59 852 0 c1069 0 1102 9 1097 309 -14 806 -801 1429 -1557 1231z m593 -568 c192 -96 339 -286 340 -437 l0 -56 -655 6 -655 5 6 58 c41 380 580 617 964 424z"/> <path d="M9795 2079 c-761 -189 -635 -1371 146 -1368 684 2 895 1018 273 1317 -118 57 -305 80 -419 51z m364 -236 c295 -178 300 -705 8 -885 -300 -185 -642 15 -679 399 -40 410 342 686 671 486z"/> <path d="M11127 2080 c-251 -52 -386 -242 -327 -462 43 -159 148 -229 470 -310 153 -38 270 -128 270 -207 0 -216 -335 -294 -570 -132 -110 76 -148 85 -186 47 -98 -98 113 -272 370 -306 592 -78 804 587 240 752 -377 110 -414 132 -414 250 0 219 319 280 561 107 67 -48 130 -38 150 23 45 142 -308 291 -564 238z"/> <path d="M8235 2058 c-49 -28 -54 -1277 -6 -1317 95 -79 150 28 151 294 l0 205 205 0 c241 1 334 33 430 151 177 214 95 552 -160 658 -86 36 -562 43 -620 9z m617 -226 c96 -96 98 -236 6 -341 l-62 -71 -207 0 -207 0 -6 220 c-8 282 -25 260 208 260 l200 0 68 -68z"/> </g> </svg>