<?xml version="1.0" standalone="no"?> <!DOCTYPE svg PUBLIC "-//W3C//DTD SVG 20010904//EN" "http://www.w3.org/TR/2001/REC-SVG-20010904/DTD/svg10.dtd"> <svg version="1.0" xmlns="http://www.w3.org/2000/svg" width="580.000000pt" height="234.000000pt" viewBox="0 0 580.000000 234.000000" preserveAspectRatio="xMidYMid meet"> <g transform="translate(0.000000,234.000000) scale(0.050000,-0.050000)" fill="#00b887" stroke="none"> <path d="M2090 4379 c-436 -59 -880 -273 -1188 -572 l-128 -125 101 -116 c56 -64 168 -181 250 -262 l147 -145 163 159 c154 150 431 322 517 322 23 0 29 -171 33 -1025 l5 -1025 320 -6 c176 -3 340 0 365 6 l45 11 0 1022 0 1021 55 -12 c136 -31 425 -196 583 -332 l164 -142 174 159 c96 88 210 197 253 242 l80 82 -144 138 c-469 451 -1167 684 -1795 600z"/> <path d="M621 3451 c-474 -766 -346 -1879 287 -2497 373 -365 779 -530 1346 -549 702 -23 1111 132 1664 633 l88 80 -235 251 c-277 295 -225 277 -388 134 -598 -526 -1336 -569 -1891 -111 -384 317 -548 969 -366 1457 l52 139 -202 211 c-112 116 -227 237 -257 268 l-53 57 -45 -73z"/> <path d="M4510 2930 c-11 -3 -45 -12 -75 -19 -170 -37 -255 -189 -255 -455 1 -354 118 -474 481 -492 l201 -9 -6 107 -6 108 -140 5 c-259 9 -290 41 -290 293 0 224 35 258 267 257 l173 -2 0 96 c0 70 -9 100 -32 109 -32 12 -282 14 -318 2z"/> <path d="M4995 2929 c-8 -9 -15 -221 -15 -472 0 -514 -5 -497 159 -497 l81 0 0 150 c0 200 31 196 173 -24 65 -101 81 -109 242 -117 151 -7 149 -19 15 167 l-109 152 70 58 c189 156 165 414 -51 533 -92 50 -527 89 -565 50z m450 -232 c139 -73 -7 -266 -178 -234 -37 7 -65 182 -40 247 11 28 157 19 218 -13z"/> <path d="M5893 2927 c-22 -23 -15 -886 8 -928 16 -31 42 -39 120 -39 l99 0 2 195 c2 107 2 224 2 260 -1 94 25 80 75 -40 57 -134 85 -155 212 -155 l104 0 67 145 68 145 6 -249 c6 -287 13 -301 146 -301 l98 0 0 469 c0 532 4 520 -164 507 l-83 -6 -121 -230 c-67 -126 -130 -230 -139 -230 -9 0 -68 98 -131 217 -64 119 -128 225 -144 234 -33 21 -205 25 -225 6z"/> <path d="M7000 2854 c0 -112 26 -134 154 -134 l106 0 0 -368 c0 -412 -8 -392 152 -392 l88 0 0 380 0 380 130 0 130 0 0 86 c0 132 -5 134 -404 134 l-356 0 0 -86z"/> <path d="M7860 2476 c0 -526 -3 -516 144 -516 l96 0 0 150 c0 183 14 186 131 25 121 -166 136 -175 283 -175 152 0 151 -11 17 175 l-110 152 79 68 c178 152 146 418 -64 528 -72 38 -125 47 -331 53 l-245 8 0 -468z m463 211 c102 -92 11 -227 -152 -227 l-71 0 0 130 0 130 93 0 c59 0 107 -12 130 -33z"/> <path d="M8927 2885 c-7 -30 -64 -239 -127 -465 -127 -457 -127 -460 22 -460 94 0 96 1 109 70 13 68 16 70 111 72 54 1 121 3 149 4 38 2 58 -14 85 -67 41 -82 280 -124 257 -45 -6 20 -44 153 -83 296 -197 712 -161 649 -365 650 -141 0 -145 -1 -158 -55z m273 -570 c0 -17 -168 -21 -184 -4 -10 10 49 277 77 349 10 24 105 -285 107 -345z"/> <path d="M9877 2921 c-207 -64 -277 -180 -277 -458 0 -363 117 -482 493 -499 l207 -9 0 88 c0 122 -22 137 -200 137 -226 0 -276 66 -256 340 13 178 41 200 260 200 l178 0 -6 105 -6 105 -170 4 c-93 2 -194 -4 -223 -13z"/> <path d="M10400 2475 c0 -525 -3 -515 144 -515 l96 0 0 170 c0 208 3 208 140 10 120 -175 138 -185 305 -176 l114 6 -161 230 c-89 127 -166 241 -172 255 -5 13 58 118 142 233 184 252 184 252 32 252 l-119 0 -124 -170 c-153 -209 -154 -209 -161 -5 l-6 165 -115 6 -115 6 0 -467z"/> </g> </svg>