<svg xmlns="http://www.w3.org/2000/svg" width="272" height="272" viewBox="0 0 204 204"><g fill="#00b899"><path d="M104.5 3.05c-22.25 3-48.6 16.15-61.8 30.85l-3.8 4.2 3.2 3.7c1.75 2.05 7.3 7.95 12.3 13.2l9.15 9.5 8-8.05C79.1 48.75 93 40 97.6 40c1.15 0 1.45 8.55 1.65 51.25l.25 51.25h36l.25-51.35.25-51.35 2.75.65c8.7 2.05 23 10.7 33 19.9l4.25 3.9 8.75-8.05c4.8-4.4 10.55-9.9 12.75-12.2l4-4.15-7.25-6.85C169.9 10.1 136.1-1.2 104.5 3.05"/><path d="M32.35 47.2c-5.75 7.4-12.55 25.6-14.3 38.1C8.95 151.95 51.8 202 118 202c31.05 0 52.05-8.45 76.5-30.7l5.75-5.25-11.8-12.5c-13.85-14.75-11.15-13.85-19.3-6.7C127.85 183.2 72.05 171.5 55.4 123c-3.25-9.4-2.75-34.3.9-43.4l2.7-6.9-10.15-10.6c-5.6-5.85-11.4-11.85-12.85-13.4-2.1-2.2-2.85-2.55-3.65-1.5"/></g></svg>