<svg xmlns="http://www.w3.org/2000/svg" width="738.667" height="738.667" viewBox="0 0 554 554"><g fill="#00b887"><path d="M232.4 17.1c-34.8 4-65.9 26.4-81.9 58.7-9 18.2-12.1 33.5-11.2 55.1.8 19.3 5.3 35 14.8 51.2 5.7 9.8 11.6 16.7 50 57.6 18.6 20 33.9 36.5 33.9 36.8s-6.8.5-15 .5c-18.4 0-31.4 1.3-44.3 4.6-36.4 9.1-67.8 30.2-90.3 60.9-2.9 3.9-15.9 24.3-29 45.4-21.8 35.3-23.8 38.9-24.2 43.7-1.3 16 18.1 24.5 29.1 12.8 1.4-1.6 12.7-19.1 24.9-38.9 26.6-43 29.7-47.5 40.7-58.3 13.6-13.4 29.3-23.1 47.1-29.2 17.5-6 19.5-6.2 77.8-6.7 59.5-.5 55.2-1.1 51.3 6.6-5.4 10.4-16.9 20.9-27.9 25.2-5.2 2.1-7.8 2.4-31.7 2.9-28.9.6-30 .8-35.1 7.5-3.1 4.1-4.2 10.7-2.5 15.7 1.4 4.2 6.5 9.2 11 10.7 2.4.8 28.7 1.1 92.4 1.1 87.1 0 89.2 0 93.2-2 3.3-1.6 6.8-5.5 17.5-19.8 16.2-21.4 20.1-25.7 28.8-31.5 7.5-4.9 15.2-9.1 15.8-8.4 1 1-33 59.4-39 67.1-17.4 22.2-42.4 37.5-72.6 44.1-4.8 1.1-16.1 2-31.5 2.6-25.5 1-38.8 2-55 4.5-60.6 9.2-118.4 30.9-169.1 63.5C90 507.8 87 511.9 87 519.5c0 9.7 7.2 16.7 17.2 16.7 4.1 0 6.1-.7 12.6-4.8 45.1-28.1 86.3-45.2 133.2-55.3 23.5-5 40.1-6.9 75-8.6 39.8-1.9 51.6-4.4 75.5-16 26.4-12.8 47.6-30.9 62-53 2.9-4.4 16.6-28.2 30.5-53 28-49.7 28.2-50.3 24.1-58.7-1.1-2.4-3.7-5.4-5.8-6.8-3.4-2.3-4.5-2.5-14.2-2.4-25 .3-50.6 9.9-71.7 26.8-9.2 7.4-14.3 13-26.9 29.8l-8.7 11.8h-20.1c-11 0-19.8-.2-19.6-.4.4-.5 9.4-9.7 44.4-45.6 9.9-10.2 27.7-28.4 39.5-40.5 60.5-62.1 65.7-68.1 74.6-86.9 6.7-14.2 9.4-25.5 10.1-42.1 1.2-31.7-8.8-58.8-30-81.2-32-33.6-79.4-42.4-121.2-22.4-11.2 5.4-16.7 9.3-29.2 20.7-4.7 4.3-8.9 8-9.3 8.2-.5.2-4.6-3.3-9.1-7.8-19.1-18.4-39.1-28.2-63.7-31-9.8-1.1-13.6-1.1-23.8.1m28 35.4c7.8 1.6 17.2 5.8 24.2 10.6 2.6 1.7 10.8 9.2 18.4 16.5 14.6 14.3 18.3 16.6 26.1 16.6 7.7-.1 11.9-2.8 26.1-16.8 14.3-14 19.3-17.9 29.2-22.5 17.4-8.1 42.4-7.7 59.6 1.1 18.3 9.3 32.3 26.8 38.2 47.6 3.1 11.1 3.1 28.7 0 39.7-2.8 9.8-7.6 19.5-13.6 27.2-6.2 7.8-26.7 29.6-73.1 77-20.9 21.4-40.6 41.7-43.8 45l-5.7 6v-4.9c0-6.4-3-12.4-7.7-15.6-3.6-2.5-3.9-2.5-27.9-2.8l-24.4-.3-20.7-22.2c-11.4-12.2-24.1-25.8-28.3-30.2-45.3-47.8-52.4-56.3-58-69.5-6.8-16.1-7.7-36.9-2.3-53 8.2-24.7 29.2-44.4 52.4-49.4 8.5-1.9 22.7-1.9 31.3-.1"/><path d="M373.1 106.2c-2.4 1.1-5.2 3.5-6.2 5.2s-6.4 14.5-12 28.4-10.4 25-10.8 24.7c-.3-.4-4.9-9-10.1-19.3-7.5-14.8-10.2-19.2-12.9-20.9-4.5-3-8.9-3.7-14.2-2.3-3.7 1-7 3.8-20.9 17.5l-16.5 16.4-16.7.3-16.6.3-3.9 3.1c-9.9 8-9.3 21.8 1.1 27.9 4.2 2.5 4.7 2.5 25.9 2.5 12.6 0 22.7-.4 24.3-1 1.5-.6 7.4-5.6 13-11.2l10.3-10 12.4 24.8c12.4 24.7 15.4 29.2 21 31.3 6.4 2.5 15.7-.2 19.4-5.5 1.1-1.6 7.1-15.6 13.3-31.2 6.3-15.5 11.6-28.2 11.9-28.2s3.8 4.9 7.6 10.7c11.5 17.6 14.6 20.3 23.2 20.3 5.1 0 10.2-2.4 13.4-6.3 2.5-3.1 4.2-10 3.4-13.7-.4-1.8-9.5-16.4-20.2-32.6-17.5-26.2-20-29.6-23.7-31.4-5.4-2.6-10-2.5-15.5.2"/></g></svg>