  <svg version="1.0" xmlns="http://www.w3.org/2000/svg"  width="1341.000000pt" height="1341.000000pt" viewBox="0 0 1341.000000 1341.000000"  preserveAspectRatio="xMidYMid meet"> <g transform="translate(0.000000,1341.000000) scale(0.100000,-0.100000)" fill="#00b899" stroke="none"> <path d="M1940 12550 c-181 -26 -181 -26 -360 -100 -273 -113 -527 -367 -640 -640 -76 -184 -79 -195 -100 -360 -12 -101 -12 -9409 0 -9510 18 -139 27 -181 61 -265 45 -114 89 -208 113 -245 181 -274 385 -431 716 -550 38 -13 103 -26 215 -40 95 -12 5229 -12 5315 0 36 5 85 12 110 16 25 3 59 12 77 20 17 8 40 14 51 14 12 0 23 4 26 9 3 5 18 12 32 15 23 6 135 55 171 75 60 33 195 136 255 194 104 102 170 191 247 331 77 141 134 360 129 491 l-3 80 -70 6 c-89 7 -267 58 -281 80 -8 14 -44 11 -45 -3 0 -7 0 -41 1 -75 4 -157 -66 -362 -170 -503 -51 -68 -144 -162 -195 -195 -103 -67 -173 -99 -273 -124 l-83 -21 -2632 0 c-2309 0 -2641 2 -2704 15 -81 17 -151 42 -203 74 -19 11 -42 24 -50 28 -52 23 -195 154 -243 223 -66 94 -111 189 -137 290 -20 78 -20 105 -20 4815 l0 4737 21 81 c38 151 115 282 231 393 115 111 232 177 377 213 84 21 85 21 2723 21 2607 0 2641 0 2718 -20 103 -26 168 -56 285 -131 46 -30 159 -147 203 -210 33 -49 92 -172 112 -233 39 -123 40 -142 40 -1078 0 -889 0 -908 20 -928 10 -10 37 -31 59 -44 50 -32 211 -166 261 -217 21 -22 43 -39 49 -39 8 0 10 297 8 1138 -2 1018 -4 1144 -19 1202 -48 190 -114 330 -226 480 -120 161 -310 313 -482 385 -47 20 -93 40 -102 45 -10 6 -25 10 -34 10 -9 0 -30 6 -47 14 -31 14 -51 18 -192 36 -86 11 -5236 11 -5315 0z"/> <path d="M1980 11706 c-68 -19 -115 -44 -165 -88 -64 -56 -99 -112 -124 -194 l-21 -71 0 -4657 0 -4658 22 -74 c38 -131 145 -238 276 -275 67 -19 121 -19 2653 -17 l2584 3 57 23 c31 12 77 39 102 58 46 35 126 133 126 154 0 6 8 23 17 37 16 24 18 60 21 285 2 143 1 270 -2 283 -4 15 -30 41 -69 67 -66 46 -72 49 -187 110 -41 21 -82 43 -90 48 -14 8 -39 18 -195 74 -39 15 -79 26 -90 26 -11 1 -31 7 -45 15 -14 8 -40 14 -58 15 -18 0 -42 5 -53 10 -10 6 -81 17 -156 25 -111 12 -329 15 -1108 15 -997 1 -981 0 -1125 38 -155 40 -365 200 -452 342 -18 31 -39 64 -46 75 -6 11 -15 27 -18 35 -3 8 -10 24 -14 35 -28 64 -43 132 -51 230 -6 66 -9 1139 -7 2690 l3 2580 24 75 c88 281 312 503 582 579 41 11 102 21 135 21 32 0 66 5 74 10 12 7 16 46 20 212 5 201 5 202 28 208 48 11 2015 -7 2067 -20 28 -6 79 -15 115 -19 72 -9 225 -41 310 -66 30 -9 66 -19 80 -22 14 -3 32 -11 40 -18 8 -7 29 -15 45 -18 36 -6 193 -63 209 -76 36 -30 37 -15 34 805 l-3 799 -22 45 c-54 110 -138 190 -240 232 l-58 23 -880 0 -880 0 -2 -45 c-6 -100 -27 -172 -97 -334 -39 -89 -174 -243 -267 -302 -98 -64 -145 -87 -219 -107 -30 -9 -73 -21 -95 -27 -79 -22 -227 -24 -307 -5 -169 41 -214 59 -334 137 -191 123 -354 398 -354 597 0 33 -3 66 -6 75 -6 14 -91 16 -873 15 -657 -1 -877 -4 -911 -13z"/> <path d="M5030 9608 c-2 -386 1 -5413 4 -5415 2 -2 313 -4 692 -4 379 0 743 -4 809 -9 197 -15 308 -28 338 -39 16 -6 44 -11 64 -11 20 0 59 -6 87 -14 28 -8 94 -24 146 -36 52 -12 120 -31 150 -42 30 -11 69 -23 85 -28 17 -5 55 -18 85 -30 30 -12 66 -25 80 -29 23 -8 87 -37 245 -112 33 -16 83 -42 110 -58 28 -16 68 -39 90 -51 61 -33 234 -149 285 -190 66 -54 73 -54 127 -11 42 33 147 105 218 151 112 71 304 171 489 255 45 20 170 64 206 72 14 3 30 9 35 13 6 4 37 15 70 25 33 9 80 23 105 30 91 26 383 80 485 89 226 21 416 26 995 26 366 -1 671 0 678 0 9 0 12 550 12 2715 l0 2715 -792 -3 c-829 -3 -803 -2 -1043 -47 -347 -66 -717 -242 -1022 -486 -69 -56 -147 -129 -323 -301 -86 -84 -162 -153 -170 -153 -8 0 -105 89 -215 198 -110 108 -230 221 -267 251 -68 55 -266 190 -329 225 -118 65 -190 100 -300 143 -178 71 -182 72 -319 104 -276 65 -251 63 -1117 66 -633 3 -793 1 -793 -9z m1932 -1660 c22 -6 61 -32 88 -57 57 -54 76 -116 59 -191 -14 -63 -32 -89 -107 -150 -36 -30 -89 -76 -116 -101 -28 -25 -71 -61 -96 -79 -25 -19 -49 -39 -55 -45 -5 -6 -32 -29 -60 -50 -27 -22 -63 -52 -80 -66 -16 -15 -64 -54 -105 -88 -41 -34 -86 -72 -100 -84 -14 -13 -61 -52 -105 -87 -44 -36 -91 -75 -105 -88 -14 -13 -62 -53 -107 -89 -46 -35 -83 -71 -83 -78 0 -8 31 -38 68 -67 38 -29 93 -74 123 -100 52 -45 91 -77 194 -163 27 -22 67 -56 90 -75 23 -19 113 -93 200 -165 248 -205 393 -330 413 -356 34 -43 44 -137 22 -204 -15 -46 -89 -109 -146 -125 -68 -19 -119 -2 -212 69 -42 33 -88 70 -102 83 -14 13 -41 35 -60 49 -19 15 -47 38 -63 52 -15 15 -47 41 -70 59 -24 18 -70 56 -103 85 -32 28 -80 69 -105 90 -25 21 -66 54 -90 75 -24 20 -78 64 -119 98 -179 148 -225 187 -264 220 -22 19 -45 38 -51 42 -5 4 -61 52 -124 105 -128 110 -156 151 -156 228 0 97 42 143 385 420 49 39 275 229 320 268 19 16 67 55 105 86 39 31 88 73 110 93 22 20 54 47 70 59 17 13 62 50 101 84 226 192 271 226 319 243 41 14 70 14 117 0z m2099 0 c55 -16 124 -87 144 -149 20 -60 10 -115 -32 -182 -15 -23 -36 -58 -46 -77 -11 -19 -31 -53 -46 -75 -15 -22 -30 -47 -34 -55 -4 -8 -13 -24 -20 -35 -64 -108 -115 -191 -129 -213 -9 -15 -29 -49 -43 -77 -15 -27 -37 -63 -49 -80 -13 -16 -26 -37 -30 -45 -4 -8 -12 -24 -19 -35 -48 -81 -109 -183 -117 -195 -5 -8 -33 -55 -62 -103 -29 -49 -61 -101 -70 -115 -10 -15 -21 -34 -25 -42 -3 -8 -26 -45 -50 -82 -24 -37 -43 -69 -43 -72 0 -4 -85 -146 -122 -204 -10 -15 -22 -36 -27 -48 -5 -12 -27 -48 -48 -80 -44 -69 -51 -80 -80 -133 -12 -22 -35 -60 -50 -83 -36 -55 -43 -68 -72 -120 -74 -136 -123 -185 -203 -208 -40 -10 -56 -10 -95 1 -64 18 -137 88 -153 149 -22 81 -5 132 90 280 5 8 26 44 47 80 20 36 39 67 43 70 4 3 10 12 14 20 4 8 12 24 19 35 7 11 33 56 60 100 26 44 51 87 56 95 5 8 33 55 63 103 29 48 61 100 70 115 10 15 21 34 25 42 3 8 56 97 117 198 61 100 118 195 126 210 12 22 191 320 230 382 15 25 114 190 133 223 10 18 44 74 75 125 31 51 70 117 85 145 39 69 61 92 121 122 55 28 89 31 147 13z m851 -7 c24 -10 51 -25 59 -32 8 -8 39 -34 69 -59 30 -24 65 -55 77 -67 12 -13 37 -33 56 -46 19 -13 58 -44 88 -69 87 -75 478 -400 518 -431 20 -15 54 -45 76 -65 22 -21 60 -53 85 -72 25 -19 59 -47 75 -62 17 -16 54 -47 83 -71 184 -146 204 -173 205 -271 1 -49 -5 -70 -27 -108 -15 -25 -37 -53 -49 -61 -20 -13 -119 -94 -225 -185 -24 -20 -63 -53 -87 -72 -24 -19 -88 -72 -142 -118 -54 -46 -132 -111 -173 -145 -41 -34 -80 -66 -86 -72 -6 -5 -33 -28 -59 -50 -27 -22 -53 -45 -59 -50 -11 -11 -114 -96 -204 -168 -26 -20 -67 -55 -92 -76 -192 -164 -230 -180 -332 -146 -57 20 -101 66 -127 133 -27 67 -26 82 3 145 22 48 39 67 132 148 95 82 524 440 568 474 28 21 56 44 61 51 6 6 88 75 183 154 94 78 172 145 172 149 0 3 -8 11 -17 17 -20 12 -335 273 -343 284 -3 3 -26 22 -53 42 -26 20 -73 58 -105 86 -31 28 -167 143 -302 255 -135 112 -255 215 -266 228 -23 25 -54 106 -54 138 0 39 49 129 87 158 70 55 132 65 205 34z"/> <path d="M12152 9201 c-9 -5 -13 -622 -14 -2722 l-3 -2714 -985 -6 c-1089 -7 -1101 -8 -1415 -79 -166 -38 -181 -43 -330 -100 -146 -56 -213 -83 -225 -90 -8 -5 -60 -32 -115 -61 -55 -28 -125 -68 -155 -89 -31 -20 -70 -44 -86 -53 -54 -28 -247 -178 -345 -268 -53 -49 -102 -89 -108 -89 -7 0 -42 28 -79 63 -109 100 -145 131 -182 157 -19 13 -58 43 -86 65 -28 22 -73 53 -100 70 -27 16 -74 45 -104 63 -101 63 -274 149 -395 196 -66 26 -133 54 -150 61 -36 16 -192 59 -290 80 -327 71 -396 74 -1462 75 -541 0 -914 4 -917 9 -4 5 -6 1227 -6 2715 0 2514 -1 2707 -17 2713 -23 9 -130 -14 -178 -38 -47 -24 -128 -100 -159 -149 -12 -19 -30 -59 -39 -89 -16 -50 -17 -237 -17 -2646 0 -2365 1 -2598 16 -2642 9 -26 23 -61 32 -78 40 -73 135 -152 223 -184 53 -20 81 -20 1079 -24 971 -4 1032 -5 1155 -25 72 -11 159 -27 195 -36 36 -9 81 -20 100 -25 19 -4 46 -13 60 -18 14 -6 52 -18 85 -28 55 -16 77 -24 160 -59 49 -21 238 -115 260 -128 40 -26 101 -63 125 -76 13 -7 43 -28 66 -47 23 -19 46 -35 50 -35 11 0 135 -103 224 -186 109 -103 130 -119 212 -150 59 -22 80 -25 156 -22 76 3 96 8 162 40 49 24 100 61 146 105 103 98 187 168 259 219 100 69 162 111 175 117 8 4 38 21 65 37 28 17 75 42 105 57 30 14 62 30 70 34 8 5 22 12 30 15 8 3 29 12 45 19 68 30 103 43 160 60 55 16 76 22 176 54 19 6 57 15 85 21 273 56 362 60 1421 60 1005 0 970 -1 1043 41 8 5 24 13 35 18 24 11 115 105 138 143 9 15 25 49 34 75 17 45 18 197 18 2648 0 2442 -1 2603 -17 2647 -10 26 -23 58 -30 70 -20 36 -109 128 -148 152 -57 37 -184 72 -208 57z"/> </g> </svg> 