<svg width="3167" height="1011" viewBox="0 0 3167 1011" fill="none" xmlns="http://www.w3.org/2000/svg">
<path d="M74.5123 274.829H147.86V771.578H412.923V836H74.1243L74.5123 274.829ZM584.959 434.72V836H515.492V434.72H584.959ZM586.512 275.217V349.729H513.164V275.217H586.512ZM937.88 434.72V487.111H840.471V836H768.287V487.111H683.685V434.72H768.287V372.626C768.287 340.803 776.437 316.613 792.737 300.054C809.036 283.237 833.356 274.829 865.697 274.829H941.373L941.761 325.668H881.608C865.309 325.668 854.183 330.066 848.233 338.863C842.282 347.66 839.307 360.984 839.307 378.836V434.72H937.88ZM1073.24 652.048C1073.24 677.403 1077.38 700.429 1085.66 721.127C1094.19 741.566 1107 757.866 1124.08 770.026C1141.41 782.186 1163.01 788.266 1188.89 788.266C1214.5 788.266 1236.49 782.315 1254.86 770.414C1273.49 758.512 1285.39 741.307 1290.56 718.798H1358.48C1353.56 745.964 1342.7 768.861 1325.88 787.489C1309.06 806.117 1288.75 820.218 1264.95 829.791C1241.15 839.105 1216.31 843.762 1190.44 843.762C1152.92 843.762 1119.94 835.612 1091.48 819.312C1063.02 803.013 1040.77 779.598 1024.73 749.069C1008.69 718.54 1000.67 681.93 1000.67 639.241C1000.67 597.069 1007.91 560.071 1022.4 528.248C1036.89 496.426 1057.84 471.588 1085.27 453.736C1112.95 435.884 1146.2 426.958 1185.01 426.958C1222.78 426.958 1254.73 435.108 1280.86 451.408C1306.99 467.707 1326.79 490.734 1340.24 520.487C1353.95 549.981 1360.81 585.038 1360.81 625.658V652.048H1073.24ZM1073.63 603.537H1291.73C1291.73 580.511 1287.85 559.813 1280.09 541.443C1272.32 522.815 1260.42 508.197 1244.38 497.59C1228.6 486.723 1208.68 481.29 1184.62 481.29C1159.52 481.29 1138.69 487.37 1122.14 499.53C1105.84 511.431 1093.55 526.826 1085.27 545.712C1077.25 564.34 1073.37 583.615 1073.63 603.537Z" fill="#1F1F1F"/>
<path d="M1974.6 652.048C1974.6 677.403 1978.74 700.429 1987.02 721.127C1995.56 741.566 2008.37 757.866 2025.44 770.026C2042.78 782.186 2064.38 788.266 2090.25 788.266C2115.87 788.266 2137.86 782.315 2156.23 770.414C2174.86 758.512 2186.76 741.307 2191.93 718.798H2259.85C2254.93 745.964 2244.06 768.861 2227.25 787.489C2210.43 806.117 2190.12 820.218 2166.32 829.791C2142.52 839.105 2117.68 843.762 2091.81 843.762C2054.29 843.762 2021.3 835.612 1992.84 819.312C1964.38 803.013 1942.13 779.598 1926.09 749.069C1910.05 718.54 1902.03 681.93 1902.03 639.241C1902.03 597.069 1909.28 560.071 1923.77 528.248C1938.25 496.426 1959.21 471.588 1986.63 453.736C2014.32 435.884 2047.56 426.958 2086.37 426.958C2124.15 426.958 2156.1 435.108 2182.23 451.408C2208.36 467.707 2228.15 490.734 2241.61 520.487C2255.32 549.981 2262.18 585.038 2262.18 625.658V652.048H1974.6ZM1974.99 603.537H2193.1C2193.1 580.511 2189.22 559.813 2181.45 541.443C2173.69 522.815 2161.79 508.197 2145.75 497.59C2129.97 486.723 2110.05 481.29 2085.98 481.29C2060.89 481.29 2040.06 487.37 2023.5 499.53C2007.2 511.431 1994.91 526.826 1986.63 545.712C1978.61 564.34 1974.73 583.615 1974.99 603.537ZM2520.62 426.958C2549.34 426.958 2575.21 432.521 2598.24 443.646C2621.27 454.512 2640.02 470.036 2654.51 490.216C2669.26 510.397 2678.44 534.199 2682.07 561.624H2618.42C2616.09 547.653 2610.66 534.846 2602.12 523.203C2593.84 511.561 2582.84 502.247 2569.13 495.261C2555.42 488.276 2539.38 484.783 2521.01 484.783C2486.6 484.783 2458.66 497.202 2437.18 522.039C2415.71 546.877 2404.97 584.909 2404.97 636.136C2404.97 682.448 2414.8 719.574 2434.47 747.517C2454.39 775.2 2483.62 789.042 2522.17 789.042C2540.54 789.042 2556.46 785.549 2569.91 778.563C2583.62 771.319 2594.62 761.876 2602.9 750.233C2611.18 738.332 2616.48 725.654 2618.81 712.201H2681.29C2677.93 739.108 2668.87 762.393 2654.12 782.056C2639.38 801.719 2620.49 816.984 2597.46 827.85C2574.7 838.458 2549.08 843.762 2520.62 843.762C2484.66 843.762 2452.71 835.871 2424.76 820.089C2397.08 804.306 2375.35 781.021 2359.57 750.233C2343.78 719.445 2335.89 681.671 2335.89 636.912C2335.89 594.999 2343.01 558.39 2357.24 527.084C2371.73 495.52 2392.68 470.941 2420.11 453.348C2447.79 435.755 2481.3 426.958 2520.62 426.958ZM2779.14 836V259.305H2848.99V493.709C2855.72 482.584 2864.77 472.235 2876.16 462.662C2887.54 452.831 2901.38 444.94 2917.68 438.989C2933.98 432.78 2952.87 429.675 2974.34 429.675C3000.47 429.675 3024.15 434.591 3045.36 444.422C3066.58 453.995 3083.39 467.707 3095.81 485.559C3108.23 503.411 3114.44 524.626 3114.44 549.205V836H3042.64V563.564C3042.64 539.503 3034.37 521.004 3017.81 508.068C3001.51 494.873 2980.16 488.276 2953.77 488.276C2935.92 488.276 2919.1 491.251 2903.32 497.202C2887.54 502.894 2874.73 511.69 2864.9 523.591C2855.33 535.234 2850.54 550.111 2850.54 568.221V836H2779.14Z" fill="#1F1F1F"/>
<g filter="url(#filter0_d_3216_51)">
<path d="M1473 275.413C1055.47 302.955 1081.91 38.5578 1072 2.20312H1473C1680.11 2.20312 1739.97 184.343 1744.01 275.413V940.812C1536.02 954.032 1476.67 789.886 1473 706.16V275.413Z" fill="#35A849"/>
</g>
<path d="M1763.29 272.108C1752.82 124.487 1681.22 45.1678 1584.27 0H1924.68C2114.17 0 2151.25 199.032 2149.42 272.108H1763.29Z" fill="#35A849"/>
<defs>
<filter id="filter0_d_3216_51" x="1069.8" y="2.20312" width="676.414" height="943.769" filterUnits="userSpaceOnUse" color-interpolation-filters="sRGB">
<feFlood flood-opacity="0" result="BackgroundImageFix"/>
<feColorMatrix in="SourceAlpha" type="matrix" values="0 0 0 0 0 0 0 0 0 0 0 0 0 0 0 0 0 0 127 0" result="hardAlpha"/>
<feOffset dy="2.20331"/>
<feGaussianBlur stdDeviation="1.10165"/>
<feComposite in2="hardAlpha" operator="out"/>
<feColorMatrix type="matrix" values="0 0 0 0 0 0 0 0 0 0 0 0 0 0 0 0 0 0 0.25 0"/>
<feBlend mode="normal" in2="BackgroundImageFix" result="effect1_dropShadow_3216_51"/>
<feBlend mode="normal" in="SourceGraphic" in2="effect1_dropShadow_3216_51" result="shape"/>
</filter>
</defs>
</svg>
